<svg width="249" height="43" viewBox="0 0 249 43" fill="none" xmlns="http://www.w3.org/2000/svg">
<mask id="path-1-inside-1_33_1651" fill="white">
<path d="M0 0H248.94V43H0V0Z"/>
</mask>
<path d="M248.94 43V41H0V43V45H248.94V43Z" fill="#C5A059" mask="url(#path-1-inside-1_33_1651)"/>
<path d="M0.0974531 25.5V24.2275H0.386391C0.678547 24.2275 0.934547 24.1818 1.15439 24.0904C1.37423 23.9991 1.57808 23.8267 1.76592 23.5732C1.95377 23.3198 2.13441 22.9557 2.30784 22.4808L7.51055 8.364H10.8165L15.9342 22.7606C16.0715 23.1151 16.2261 23.4007 16.3979 23.6171C16.5698 23.8336 16.7713 23.9895 17.0025 24.0847C17.2337 24.1799 17.4966 24.2275 17.7914 24.2275H18.0755V25.5H10.1529V24.2275H10.9416C11.2917 24.2275 11.5774 24.161 11.7989 24.0281C12.0203 23.8951 12.131 23.6565 12.131 23.3122C12.131 23.179 12.1184 23.0499 12.0931 22.9248C12.0678 22.7997 12.0385 22.6781 12.0052 22.5602C11.972 22.4423 11.936 22.3413 11.8972 22.2571L11.0625 19.8615H5.23781L4.53464 21.922C4.49592 22.05 4.4536 22.1966 4.40768 22.3617C4.36176 22.5268 4.32384 22.6892 4.29391 22.8489C4.26399 23.0086 4.24903 23.155 4.24903 23.2882C4.24903 23.5953 4.34159 23.8287 4.5267 23.9882C4.7118 24.1477 5.01267 24.2275 5.4293 24.2275H6.34327V25.5H0.0974531ZM5.73558 18.3969H10.5749L9.15647 13.9742C9.04288 13.6056 8.92864 13.2447 8.81377 12.8916C8.69889 12.5385 8.59305 12.1828 8.49626 11.8246C8.39946 11.4663 8.31234 11.1045 8.23491 10.7391C8.15491 11.0952 8.06523 11.444 7.96587 11.7855C7.86651 12.1269 7.76443 12.4681 7.65963 12.809C7.55484 13.15 7.43428 13.5035 7.29797 13.8696L5.73558 18.3969ZM27.3902 25.5V24.2275H28.0675C28.3917 24.2275 28.6809 24.1915 28.9351 24.1195C29.1894 24.0475 29.3899 23.899 29.5368 23.6739C29.6837 23.4489 29.7571 23.1113 29.7571 22.6612V9.82852H27.8429C27.1337 9.82852 26.642 9.98043 26.368 10.2843C26.094 10.5881 25.925 11.004 25.861 11.532L25.6853 13.0234H24.0753L24.1953 8.364H39.1552L39.2752 13.0234H37.6652L37.5035 11.532C37.4395 11.004 37.2715 10.5881 36.9995 10.2843C36.7275 9.98043 36.2315 9.82852 35.5115 9.82852H33.5872V22.6665C33.5872 23.1146 33.6616 23.4506 33.8104 23.6747C33.9591 23.8987 34.162 24.0468 34.419 24.1191C34.676 24.1914 34.9619 24.2275 35.2768 24.2275H35.9541V25.5H27.3902ZM47.3793 25.5V24.2275H48.2204C48.4981 24.2275 48.7409 24.1822 48.9487 24.0916C49.1566 24.0011 49.32 23.856 49.439 23.6565C49.558 23.457 49.6176 23.1949 49.6176 22.8701V11.1139C49.6176 10.6762 49.5528 10.3535 49.4232 10.146C49.2936 9.93851 49.1202 9.80171 48.9031 9.73563C48.686 9.66956 48.4491 9.63652 48.1925 9.63652H47.3793V8.364H60.7144L60.8065 12.7867H59.127L59.007 11.6573C58.975 11.2589 58.8946 10.9256 58.7658 10.6575C58.637 10.3893 58.4478 10.1841 58.1982 10.0419C57.9486 9.89963 57.6116 9.82852 57.1873 9.82852H53.4059V15.8227H59.1203V17.2632H53.4059V24.0355H57.843C58.2622 24.0355 58.6023 23.9551 58.8632 23.7943C59.1242 23.6335 59.3294 23.4167 59.4788 23.1439C59.6282 22.8711 59.727 22.5587 59.775 22.2067L59.9569 21.0773H61.6225L61.4545 25.5H47.3793ZM70.2513 25.5V24.2275H71.1202C71.3583 24.2275 71.5812 24.1852 71.789 24.1005C71.9969 24.0159 72.1656 23.8704 72.2952 23.6642C72.4248 23.458 72.4896 23.1811 72.4896 22.8336V11.0722C72.4896 10.6994 72.4224 10.4092 72.2882 10.2017C72.154 9.9942 71.976 9.84812 71.7542 9.76348C71.5325 9.67884 71.284 9.63652 71.0088 9.63652H70.2513V8.364H78.544V9.63652H77.7308C77.4159 9.63652 77.1546 9.67716 76.9467 9.75844C76.7389 9.83972 76.5801 9.98012 76.4704 10.1796C76.3606 10.3791 76.3057 10.6539 76.3057 11.004V24.0355H80.7692C81.1379 24.0355 81.4516 23.9553 81.7105 23.795C81.9694 23.6347 82.1824 23.3958 82.3496 23.0784C82.5168 22.761 82.6522 22.3832 82.7559 21.9451L83.1491 20.1451H84.4945L84.3265 25.5H70.2513ZM93.1473 25.5V24.2275H94.0162C94.2543 24.2275 94.4772 24.1852 94.685 24.1005C94.8929 24.0159 95.0616 23.8728 95.1912 23.6712C95.3208 23.4696 95.3856 23.195 95.3856 22.8475V11.1C95.3856 10.7179 95.3208 10.4208 95.1912 10.2087C95.0616 9.99652 94.8929 9.84812 94.685 9.76348C94.4772 9.67884 94.2543 9.63652 94.0162 9.63652H93.1473V8.364H101.44V9.63652H100.543C100.284 9.63652 100.051 9.68116 99.8447 9.77044C99.6381 9.85972 99.477 10.0081 99.3613 10.2156C99.2457 10.4231 99.1878 10.7226 99.1878 11.1139V22.8197C99.1878 23.1579 99.2503 23.4325 99.3753 23.6433C99.5002 23.8542 99.666 24.0043 99.8725 24.0936C100.079 24.1828 100.303 24.2275 100.543 24.2275H101.44V25.5H93.1473ZM109.971 25.5V24.2275H110.812C111.09 24.2275 111.333 24.1822 111.541 24.0916C111.749 24.0011 111.912 23.856 112.031 23.6565C112.15 23.457 112.21 23.1949 112.21 22.8701V11.1139C112.21 10.6762 112.145 10.3535 112.015 10.146C111.886 9.93851 111.712 9.80171 111.495 9.73563C111.278 9.66956 111.041 9.63652 110.785 9.63652H109.971V8.364H123.306L123.399 12.7867H121.719L121.599 11.6573C121.567 11.2589 121.487 10.9256 121.358 10.6575C121.229 10.3893 121.04 10.1841 120.79 10.0419C120.541 9.89963 120.204 9.82852 119.779 9.82852H115.998V15.8227H121.712V17.2632H115.998V24.0355H120.435C120.854 24.0355 121.194 23.9551 121.455 23.7943C121.716 23.6335 121.921 23.4167 122.071 23.1439C122.22 22.8711 122.319 22.5587 122.367 22.2067L122.549 21.0773H124.215L124.047 25.5H109.971ZM132.843 25.5V24.2275H133.503C133.772 24.2275 134.024 24.1961 134.26 24.1334C134.495 24.0707 134.691 23.9349 134.847 23.7261C135.003 23.5173 135.082 23.2041 135.082 22.7865V11.1015C135.082 10.6679 134.999 10.349 134.833 10.1448C134.668 9.94067 134.465 9.80491 134.225 9.73755C133.984 9.6702 133.744 9.63652 133.503 9.63652H132.843V8.364H140.58C142.204 8.364 143.514 8.54528 144.509 8.90784C145.505 9.27041 146.229 9.79169 146.682 10.4717C147.134 11.1517 147.361 11.9746 147.361 12.9403C147.361 13.8254 147.196 14.5623 146.868 15.151C146.539 15.7396 146.113 16.2053 145.591 16.548C145.069 16.8907 144.506 17.1534 143.902 17.3362L146.87 22.21C147.295 22.9057 147.679 23.4159 148.021 23.7405C148.364 24.0652 148.755 24.2275 149.195 24.2275H149.323V25.5H148.527C147.573 25.5 146.766 25.4457 146.107 25.337C145.448 25.2284 144.895 25.0181 144.448 24.7061C144.001 24.3941 143.611 23.9387 143.281 23.34L140.458 18.0653H138.884V22.7865C138.884 23.2041 138.95 23.5173 139.083 23.7261C139.216 23.9349 139.398 24.0707 139.629 24.1334C139.86 24.1961 140.115 24.2275 140.392 24.2275H140.858V25.5H132.843ZM140.216 16.6728C141.355 16.6728 142.156 16.377 142.621 15.7855C143.085 15.194 143.317 14.3114 143.317 13.1376C143.317 12.3293 143.206 11.6791 142.985 11.1869C142.763 10.6947 142.42 10.3373 141.955 10.1146C141.49 9.89188 140.894 9.78052 140.168 9.78052H138.884V16.6728H140.216ZM170.571 25.5V24.2275H171.162C171.486 24.2275 171.77 24.1868 172.015 24.1056C172.26 24.0243 172.454 23.8769 172.596 23.6635C172.738 23.45 172.81 23.1577 172.81 22.7865V11.0875C172.81 10.7096 172.741 10.4163 172.603 10.2075C172.466 9.99868 172.291 9.85132 172.078 9.7654C171.866 9.67948 171.634 9.63652 171.385 9.63652H170.571V8.364H177.491L181.471 19.9341L185.277 8.364H192.081V9.63652H191.212C190.98 9.63652 190.762 9.67884 190.555 9.76348C190.348 9.84812 190.18 9.98955 190.051 10.1878C189.921 10.386 189.856 10.6669 189.856 11.0304V22.8475C189.856 23.195 189.917 23.4696 190.037 23.6712C190.157 23.8728 190.332 24.0159 190.562 24.1005C190.792 24.1852 191.055 24.2275 191.351 24.2275H192.081V25.5H184.388V24.2275H184.627C184.97 24.2275 185.251 24.1845 185.471 24.0986C185.692 24.0127 185.857 23.8617 185.969 23.6457C186.08 23.4297 186.14 23.1289 186.146 22.7433V10.7487L181.305 25.5H179.661L174.608 10.741V22.6665C174.608 23.1161 174.678 23.4533 174.819 23.6781C174.959 23.9029 175.162 24.0507 175.426 24.1214C175.69 24.1921 176.007 24.2275 176.377 24.2275H176.533V25.5H170.571ZM200.619 25.5V24.2275H201.46C201.738 24.2275 201.981 24.1822 202.189 24.0916C202.397 24.0011 202.56 23.856 202.679 23.6565C202.798 23.457 202.858 23.1949 202.858 22.8701V11.1139C202.858 10.6762 202.793 10.3535 202.663 10.146C202.534 9.93851 202.36 9.80171 202.143 9.73563C201.926 9.66956 201.689 9.63652 201.433 9.63652H200.619V8.364H213.954L214.047 12.7867H212.367L212.247 11.6573C212.215 11.2589 212.135 10.9256 212.006 10.6575C211.877 10.3893 211.688 10.1841 211.438 10.0419C211.189 9.89963 210.852 9.82852 210.427 9.82852H206.646V15.8227H212.36V17.2632H206.646V24.0355H211.083C211.502 24.0355 211.842 23.9551 212.103 23.7943C212.364 23.6335 212.569 23.4167 212.719 23.1439C212.868 22.8711 212.967 22.5587 213.015 22.2067L213.197 21.0773H214.863L214.695 25.5H200.619ZM223.491 25.5V24.2275H224.082C224.403 24.2275 224.689 24.1921 224.939 24.1214C225.188 24.0507 225.382 23.9029 225.521 23.6781C225.66 23.4533 225.73 23.1161 225.73 22.6665V11.1015C225.73 10.6679 225.658 10.349 225.516 10.1448C225.374 9.94067 225.187 9.80491 224.956 9.73755C224.725 9.6702 224.476 9.63652 224.207 9.63652H223.491V8.364H228.83L237.297 20.3273V11.1015C237.297 10.705 237.228 10.4024 237.09 10.1936C236.953 9.98476 236.773 9.83972 236.551 9.75844C236.33 9.67716 236.08 9.63652 235.802 9.63652H235.072V8.364H241.333V9.63652H240.603C240.316 9.63652 240.058 9.68116 239.828 9.77044C239.598 9.85972 239.419 10.0151 239.289 10.2365C239.16 10.458 239.095 10.7783 239.095 11.1975V25.5H236.89L227.528 12.2746V22.6665C227.528 23.1161 227.586 23.4533 227.701 23.6781C227.817 23.9029 227.99 24.0507 228.219 24.1214C228.449 24.1921 228.717 24.2275 229.022 24.2275H229.752V25.5H223.491Z" fill="#1C1B1B"/>
</svg>
